<svg data-v-423bf9ae=""
    xmlns="http://www.w3.org/2000/svg" viewBox="0 0 431 90" class="iconLeft">    <!---->    <!---->    <!---->
    <g data-v-423bf9ae="" id="fa7761da-9d89-48eb-b4e6-a8287f1212b7" fill="white" transform="matrix(5.7526364568010235,0,0,5.7526364568010235,106.37584568293533,0.5033557617470947)">
        <path d="M0.63 3.64C0.63 3.89 0.72 4.11 0.91 4.28C1.10 4.46 1.32 4.55 1.58 4.55C1.84 4.55 2.07 4.46 2.25 4.28C2.44 4.11 2.53 3.89 2.53 3.64C2.53 3.39 2.44 3.17 2.25 3.00C2.07 2.82 1.84 2.73 1.58 2.73C1.32 2.73 1.10 2.82 0.91 3.00C0.72 3.17 0.63 3.39 0.63 3.64ZM0.84 6.16L0.84 12.60L2.32 12.60L2.32 6.16ZM5.54 7.15L5.54 6.16L4.07 6.16L4.07 12.60L5.54 12.60L5.54 8.96C5.54 8.51 5.71 8.13 6.04 7.82C6.37 7.51 6.75 7.35 7.18 7.35C7.59 7.35 7.90 7.45 8.11 7.64C8.31 7.83 8.41 8.18 8.41 8.68L8.41 12.60L9.88 12.60L9.88 8.54C9.88 7.63 9.69 6.98 9.29 6.59C8.89 6.21 8.33 6.02 7.60 6.02C6.72 6.02 6.03 6.40 5.54 7.15ZM10.65 6.16L13.94 12.95L17.23 6.16L15.62 6.16L13.94 10.00L12.26 6.16ZM22.67 8.69L19.11 8.69C19.18 8.26 19.39 7.92 19.75 7.66C20.11 7.41 20.52 7.28 20.99 7.28C21.98 7.28 22.54 7.75 22.67 8.69ZM19.08 9.73L24.21 9.73C24.22 9.61 24.23 9.45 24.23 9.25C24.23 8.25 23.94 7.45 23.35 6.88C22.76 6.31 21.98 6.02 20.99 6.02C19.98 6.02 19.16 6.33 18.53 6.96C17.90 7.59 17.58 8.40 17.58 9.38C17.58 10.38 17.89 11.19 18.49 11.81C19.09 12.43 19.92 12.74 20.99 12.74C22.40 12.74 23.43 12.24 24.08 11.24L22.97 10.56C22.62 11.13 21.96 11.41 20.99 11.41C20.47 11.41 20.04 11.27 19.70 10.98C19.35 10.69 19.15 10.27 19.08 9.73ZM26.21 10.25L25.00 10.78C25.11 11.31 25.41 11.77 25.92 12.16C26.43 12.55 27.01 12.74 27.66 12.74C28.40 12.74 29.01 12.59 29.50 12.28C29.98 11.97 30.23 11.52 30.23 10.92C30.23 10.31 30.04 9.84 29.67 9.51C29.30 9.17 28.83 8.89 28.24 8.68C27.75 8.50 27.39 8.34 27.16 8.20C26.93 8.05 26.81 7.89 26.81 7.71C26.81 7.39 27.09 7.22 27.65 7.22C28.16 7.22 28.59 7.46 28.92 7.92L30.06 7.28C29.85 6.91 29.54 6.60 29.11 6.37C28.69 6.14 28.20 6.02 27.64 6.02C27.02 6.02 26.48 6.17 26.03 6.48C25.57 6.79 25.34 7.20 25.34 7.71C25.34 8.66 26.03 9.35 27.40 9.79C27.83 9.92 28.15 10.07 28.38 10.23C28.60 10.40 28.71 10.62 28.71 10.88C28.71 11.23 28.39 11.41 27.73 11.41C27.38 11.41 27.06 11.31 26.77 11.11C26.48 10.91 26.29 10.62 26.21 10.25ZM31.77 3.92L31.77 6.16L30.72 6.16L30.72 7.49L31.77 7.49L31.77 12.60L33.24 12.60L33.24 7.49L34.29 7.49L34.29 6.16L33.24 6.16L33.24 3.92ZM35.27 12.04C35.27 12.29 35.36 12.51 35.55 12.68C35.73 12.86 35.96 12.95 36.22 12.95C36.48 12.95 36.70 12.86 36.89 12.68C37.08 12.51 37.17 12.29 37.17 12.04C37.17 11.79 37.08 11.57 36.89 11.40C36.70 11.22 36.48 11.13 36.22 11.13C35.96 11.13 35.73 11.22 35.55 11.40C35.36 11.57 35.27 11.79 35.27 12.04ZM43.12 2.52L38.15 12.60L39.83 12.60L41.03 10.08L45.21 10.08L46.41 12.60L48.09 12.60ZM43.12 5.73L44.53 8.68L41.71 8.68ZM49.35 4.20L53.96 4.20L48.86 12.60L55.93 12.60L55.93 11.20L51.32 11.20L56.42 2.80L49.35 2.80Z"></path>
    </g>    <!---->
    <g data-v-423bf9ae="" id="4d954c0c-f2ff-48bd-be20-f55a700eb415" transform="matrix(2.3684210526315788,0,0,2.3684210526315788,-11.84210526315789,-11.84210526315789)" stroke="none" fill="white">
        <path d="M24 5a19 19 0 1 0 19 19A19 19 0 0 0 24 5zm8 26a1 1 0 0 1-1-1c0-5-2.61-9.19-6-9.89V28a1 1 0 0 1-2 0v-7.89c-3.39.7-6 4.86-6 9.89a1 1 0 0 1-2 0c0-6.17 3.51-11.26 8-11.92V17a1 1 0 0 1 2 0v1.08c4.49.66 8 5.75 8 11.92a1 1 0 0 1-1 1z"></path>
    </g>    <!----></svg>